<?xml version="1.0" standalone="no"?>
<!DOCTYPE svg PUBLIC "-//W3C//DTD SVG 20010904//EN"
 "http://www.w3.org/TR/2001/REC-SVG-20010904/DTD/svg10.dtd">
<svg version="1.0" xmlns="http://www.w3.org/2000/svg"
 width="2514.000000pt" height="1200.000000pt" viewBox="0 0 2514.000000 1200.000000"
 preserveAspectRatio="xMidYMid meet">

<g transform="translate(0.000000,1200.000000) scale(0.100000,-0.100000)"
fill="#000000" stroke="none">
<path d="M10 6005 l0 -5995 5995 0 5995 0 0 5995 0 5995 -5995 0 -5995 0 0
-5995z m10205 3740 c151 -24 402 -85 434 -104 10 -6 5 -56 -24 -242 -20 -129
-38 -239 -40 -246 -3 -8 -36 -1 -105 23 -243 82 -426 116 -630 116 -393 1
-613 -128 -661 -387 -29 -157 11 -285 128 -407 85 -88 181 -151 408 -271 99
-52 277 -145 395 -207 271 -142 325 -178 431 -287 202 -206 289 -424 289 -724
1 -335 -86 -566 -288 -761 -249 -241 -610 -360 -1092 -362 -243 -1 -386 25
-797 141 -216 61 -232 68 -228 87 3 12 21 131 41 266 20 135 37 246 38 247 1
1 51 -19 112 -46 359 -161 643 -229 904 -218 431 18 721 260 720 602 -1 166
-43 259 -179 395 -117 116 -172 149 -696 416 -421 214 -474 251 -595 403 -140
177 -198 370 -187 624 12 262 87 444 257 617 117 120 233 195 399 257 83 31
247 71 342 82 112 14 506 6 624 -14z m-6665 -43 c63 -12 153 -32 200 -45 82
-23 85 -25 84 -53 -1 -16 -9 -127 -19 -247 -18 -211 -20 -218 -39 -214 -12 3
-59 19 -106 36 -136 48 -268 71 -440 78 -454 17 -807 -111 -1091 -396 -201
-202 -318 -421 -380 -710 -40 -190 -37 -523 7 -721 117 -524 535 -935 1060
-1044 238 -50 607 -36 843 30 29 8 55 14 57 12 5 -6 -91 -497 -99 -504 -23
-23 -392 -48 -577 -40 -270 12 -474 47 -677 117 -585 202 -1002 652 -1152
1244 -108 428 -87 921 56 1305 202 543 687 965 1282 1114 82 21 154 34 336 60
17 2 145 3 285 1 207 -2 277 -6 370 -23z m1167 16 c5 -7 48 -101 95 -208 354
-803 1272 -2866 1277 -2872 4 -5 102 207 219 470 116 262 425 959 686 1547
l475 1070 211 3 c163 2 211 0 214 -10 3 -7 21 -242 41 -523 47 -654 89 -1233
170 -2342 36 -491 65 -910 65 -933 l0 -40 -277 2 -278 3 -51 1290 c-28 710
-52 1292 -53 1295 -4 12 -30 -46 -990 -2230 l-156 -355 -271 -3 -271 -2 -171
387 c-242 551 -875 1987 -933 2118 -26 61 -48 101 -49 90 0 -11 -23 -598 -50
-1304 -28 -706 -50 -1285 -50 -1287 0 -2 -126 -4 -280 -4 -154 0 -280 3 -280
7 0 4 18 252 40 552 22 300 83 1133 135 1851 52 718 97 1335 101 1373 l6 67
208 0 c154 0 210 -3 217 -12z m-2427 -4298 c36 -6 102 -22 148 -36 l83 -25 -5
-32 c-3 -18 -8 -84 -12 -148 l-6 -116 -78 34 c-303 131 -585 48 -709 -209 -54
-113 -73 -211 -73 -383 0 -350 129 -565 379 -630 124 -32 310 -13 425 44 l56
28 6 -116 c4 -64 9 -131 12 -149 5 -30 2 -34 -32 -48 -117 -49 -429 -65 -577
-31 -286 67 -488 255 -576 536 -41 133 -54 223 -54 381 1 275 79 504 228 669
97 106 249 192 400 224 82 18 292 21 385 7z m1354 -10 c132 -33 200 -73 302
-174 72 -72 99 -108 132 -175 85 -169 117 -323 116 -561 0 -183 -15 -283 -64
-427 -61 -180 -186 -333 -335 -410 -119 -61 -187 -77 -335 -77 -107 1 -136 4
-205 27 -334 110 -515 421 -516 884 -1 162 13 272 47 391 79 272 257 459 496
522 101 26 260 26 362 0z m5546 10 c88 -14 190 -39 220 -55 l25 -13 -8 -143
c-5 -79 -10 -145 -11 -146 -1 -1 -30 12 -65 28 -109 52 -201 72 -341 73 -106
1 -135 -2 -192 -22 -159 -55 -273 -179 -335 -367 -25 -75 -27 -92 -28 -265 0
-212 10 -263 75 -396 66 -135 183 -226 328 -254 71 -14 229 -9 280 10 l32 12
0 304 0 304 160 0 160 0 0 -404 c0 -311 -3 -406 -12 -413 -24 -19 -125 -52
-209 -68 -120 -23 -318 -30 -419 -16 -237 34 -389 108 -533 260 -151 161 -227
381 -227 661 0 209 45 394 131 535 118 195 331 333 577 375 69 11 317 11 392
0z m-4358 -777 l3 -768 303 -3 302 -2 0 -130 0 -130 -469 0 -470 0 -3 33 c-2
17 -2 422 0 900 l2 867 165 0 165 0 2 -767z m1168 -3 l0 -770 305 0 305 0 0
-130 0 -130 -475 0 -475 0 0 900 0 900 170 0 170 0 0 -770z m1810 635 l0 -135
-315 0 -315 0 0 -235 0 -235 298 -2 297 -3 3 -132 3 -133 -301 0 -300 0 2
-262 3 -263 328 -3 327 -2 0 -130 0 -130 -500 0 -500 0 0 893 c0 492 3 897 7
900 3 4 222 7 485 7 l478 0 0 -135z m3020 0 l0 -135 -315 0 -315 0 0 -235 0
-235 295 0 295 0 0 -135 0 -135 -295 0 -295 0 0 -265 0 -265 328 0 327 0 0
-130 0 -130 -497 0 -498 0 0 900 0 900 485 0 485 0 0 -135z m-7741 -2004 c85
-26 140 -61 199 -126 89 -97 132 -220 132 -380 0 -320 -190 -525 -487 -525
-140 0 -239 37 -331 123 -90 85 -134 179 -152 319 -34 278 96 515 323 587 85
27 233 28 316 2z m-1629 -222 l5 -227 200 229 200 229 119 0 c113 0 118 -1
104 -17 -9 -10 -95 -107 -191 -216 l-176 -198 190 -286 c105 -156 193 -291
196 -299 4 -12 -14 -14 -104 -14 -92 0 -112 3 -125 18 -9 9 -80 116 -158 237
-78 121 -144 222 -147 224 -2 3 -28 -19 -58 -49 l-55 -54 -2 -185 -3 -186 -97
-3 -98 -3 0 516 0 516 98 -3 97 -3 5 -226z m3130 146 l0 -85 -155 0 -155 0 0
-430 0 -431 -97 3 -98 3 -3 428 -2 427 -150 0 -150 0 0 85 0 85 405 0 405 0 0
-85z m1118 -2 l3 -83 -155 0 -156 0 -2 -427 -3 -428 -97 -3 -98 -3 0 431 0
430 -155 0 -155 0 0 85 0 85 408 -2 407 -3 3 -82z m959 -408 c101 -269 186
-500 190 -513 5 -23 5 -23 -97 -20 l-102 3 -47 130 -46 130 -189 0 -188 0 -47
-130 -46 -130 -95 0 c-79 0 -94 3 -92 15 4 18 352 991 359 1003 2 4 52 6 110
5 l105 -3 185 -490z m718 420 c23 -38 80 -134 126 -212 46 -79 86 -143 89
-143 3 0 61 97 130 215 l124 215 109 0 c84 0 107 -3 101 -12 -4 -7 -87 -142
-185 -300 l-179 -287 -2 -213 -3 -213 -95 0 -95 0 -5 215 -5 215 -182 293
c-101 160 -183 294 -183 297 0 3 48 4 107 3 l107 -3 41 -70z m1670 -427 c103
-277 190 -508 192 -515 3 -8 -23 -11 -98 -10 l-103 2 -33 90 c-19 50 -40 109
-49 132 l-15 41 -184 2 c-138 0 -185 -2 -191 -12 -5 -7 -27 -67 -50 -133 l-42
-120 -96 -3 c-53 -1 -96 1 -96 6 0 5 79 229 176 498 97 269 178 497 181 507 5
15 19 17 112 17 l107 0 189 -502z m1130 112 c66 -214 122 -387 126 -382 4 4
52 158 108 342 56 184 109 356 117 383 l16 47 139 0 139 0 0 -515 0 -515 -90
0 -90 0 -2 396 -3 396 -94 -303 c-52 -167 -107 -346 -123 -396 l-29 -93 -89 0
-89 0 -24 78 c-13 42 -68 220 -123 394 l-99 318 -5 -393 -5 -392 -90 0 -90 0
-3 500 c-1 275 0 506 3 513 3 9 41 12 143 12 l139 0 118 -390z m-5633 -1084
c106 -32 193 -122 229 -239 28 -90 23 -242 -10 -329 -29 -76 -105 -159 -179
-195 -52 -26 -67 -28 -167 -28 -98 0 -116 3 -167 27 -130 61 -208 195 -208
360 0 207 93 349 265 404 54 17 181 17 237 0z m1690 0 c106 -32 193 -122 229
-239 28 -90 23 -242 -10 -329 -29 -76 -105 -159 -179 -195 -52 -26 -67 -28
-167 -28 -98 0 -116 3 -167 27 -130 61 -208 195 -208 360 0 207 93 349 265
404 54 17 181 17 237 0z m1865 -2 c109 -37 188 -120 224 -237 28 -90 23 -242
-10 -329 -29 -76 -105 -159 -179 -195 -52 -26 -67 -28 -167 -28 -98 0 -116 3
-167 27 -130 61 -208 195 -208 360 0 207 93 349 265 404 58 18 185 17 242 -2z
m1538 2 c39 -11 40 -12 43 -64 2 -28 1 -52 -1 -52 -3 0 -26 10 -53 22 -37 16
-68 22 -124 22 -111 0 -170 -38 -170 -111 0 -70 27 -96 179 -173 148 -74 211
-156 197 -257 -9 -66 -46 -117 -109 -150 -49 -26 -60 -28 -172 -27 -78 0 -134
5 -160 15 -40 14 -40 14 -43 73 -2 32 1 56 5 54 189 -94 344 -86 373 21 22 81
-13 121 -180 207 -158 82 -199 137 -188 254 8 79 68 140 168 171 39 12 191 9
235 -5z m-7786 -56 c-174 -255 -171 -613 7 -862 l34 -48 -44 0 c-40 0 -47 4
-76 42 -172 232 -179 605 -17 856 47 72 47 72 92 72 l45 0 -41 -60z m605 -303
c77 -199 146 -377 153 -395 l14 -33 -57 3 -56 3 -40 108 -41 107 -166 -2 -166
-3 -39 -107 -39 -108 -54 0 c-40 0 -54 3 -50 13 3 6 71 184 152 395 l148 382
51 0 51 0 139 -363z m366 95 c0 -296 7 -347 57 -394 38 -34 60 -45 114 -53 88
-13 172 29 206 104 14 30 18 82 21 324 l4 287 43 0 c54 0 51 17 49 -308 -3
-300 -10 -338 -84 -413 -59 -62 -128 -83 -244 -77 -89 5 -142 26 -187 75 -69
73 -79 134 -79 458 l0 265 50 0 50 0 0 -268z m1150 228 l0 -40 -110 0 -110 0
0 -355 0 -355 -50 0 -50 0 0 355 0 355 -115 0 -115 0 0 40 0 40 275 0 275 0 0
-40z m1308 -291 l212 -332 0 332 0 331 45 0 45 0 0 -395 0 -395 -57 0 -58 1
-210 324 -210 324 -3 -324 -2 -325 -50 0 -50 0 0 395 0 395 63 0 62 0 213
-331z m1594 76 c60 -137 122 -280 137 -317 l28 -67 23 57 c13 31 77 174 142
317 l118 260 60 3 60 3 0 -396 0 -395 -45 0 -45 0 0 322 0 323 -143 -320
c-184 -413 -159 -406 -303 -85 -58 129 -122 273 -142 320 l-37 85 3 -322 4
-323 -51 0 -51 0 0 395 0 396 66 -3 65 -3 111 -250z m1708 -13 c0 -296 7 -347
57 -394 38 -34 60 -45 114 -53 88 -13 172 29 206 104 14 30 18 82 21 324 l4
287 43 0 c54 0 51 17 49 -308 -3 -300 -10 -338 -84 -413 -59 -62 -128 -83
-244 -77 -89 5 -142 26 -187 75 -69 73 -79 134 -79 458 l0 265 50 0 50 0 0
-268z m1313 221 c49 -68 83 -140 109 -230 29 -102 31 -305 5 -403 -21 -78 -73
-190 -116 -247 -29 -40 -35 -43 -77 -43 l-46 0 30 38 c88 113 133 241 140 403
8 186 -37 346 -133 480 l-35 49 44 0 c41 0 47 -3 79 -47z"/>
<path d="M3373 5166 c-140 -46 -231 -178 -268 -391 -29 -164 -21 -457 15 -599
43 -167 131 -285 241 -321 70 -24 188 -17 247 14 168 86 256 351 238 716 -19
384 -140 579 -366 591 -38 2 -83 -2 -107 -10z"/>
<path d="M2883 3119 c-94 -18 -156 -69 -201 -169 -37 -79 -43 -230 -14 -327
43 -141 134 -213 266 -213 113 1 197 53 244 154 67 142 49 363 -39 469 -57 69
-162 104 -256 86z"/>
<path d="M6367 3083 c-7 -12 -127 -389 -127 -399 0 -12 258 -15 266 -3 5 9
-123 409 -131 409 -2 0 -6 -3 -8 -7z"/>
<path d="M8690 2893 c-35 -109 -65 -202 -67 -208 -2 -6 48 -10 137 -11 77 -1
140 1 140 4 0 16 -135 412 -141 412 -3 0 -34 -89 -69 -197z"/>
<path d="M4363 1731 c-88 -23 -167 -102 -195 -195 -7 -23 -12 -82 -12 -133 0
-85 3 -97 34 -160 43 -83 97 -127 175 -143 180 -37 319 79 332 279 14 205 -80
343 -243 356 -32 2 -73 0 -91 -4z"/>
<path d="M6055 1731 c-46 -12 -90 -37 -124 -72 -129 -128 -114 -408 26 -515
98 -75 261 -64 347 22 16 16 41 54 55 84 23 49 26 67 26 165 0 104 -2 114 -33
177 -32 65 -68 101 -126 126 -36 16 -132 23 -171 13z"/>
<path d="M7913 1731 c-88 -23 -167 -102 -195 -195 -7 -23 -12 -82 -12 -133 0
-85 3 -97 34 -160 43 -83 97 -127 175 -143 91 -19 190 7 249 66 16 16 41 54
55 84 23 49 26 67 26 165 0 104 -2 114 -33 177 -32 65 -68 101 -126 126 -37
16 -132 23 -173 13z"/>
<path d="M2266 1670 c-45 -116 -125 -344 -122 -347 2 -2 61 -2 132 -1 l129 3
-67 180 c-37 100 -69 173 -72 165z"/>
<path d="M24000 6005 l0 -5995 570 0 570 0 0 5995 0 5995 -570 0 -570 0 0
-5995z"/>
<path d="M20750 11157 c0 -12 4 -49 10 -82 40 -258 70 -641 77 -1005 33 -1733
-474 -3306 -1468 -4550 -381 -478 -849 -912 -1370 -1272 l-54 -38 133 0 134 0
126 97 c417 317 823 713 1148 1118 695 865 1175 1936 1388 3095 58 317 97 647
117 1000 15 261 6 871 -16 1110 -18 195 -51 470 -56 474 -2 1 -41 19 -86 39
-81 35 -83 36 -83 14z"/>
<path d="M15305 10948 c-7 -22 -44 -377 -57 -553 -27 -366 -15 -974 28 -1364
165 -1513 774 -2843 1769 -3860 233 -238 440 -418 734 -639 l174 -131 59 52
60 52 -23 15 c-53 34 -360 267 -439 333 -608 506 -1128 1140 -1476 1803 l-64
120 373 174 c1368 638 1610 750 1620 750 10 0 204 -88 1486 -675 271 -124 495
-224 496 -223 7 7 71 155 122 278 79 191 248 659 241 665 -3 3 -184 74 -1203
475 -407 160 -830 327 -941 371 l-201 79 -994 -406 c-547 -223 -1079 -441
-1184 -484 -131 -54 -192 -75 -197 -67 -14 26 -110 383 -148 550 -120 535
-165 969 -164 1587 1 395 9 564 45 878 l12 102 671 0 c979 0 4470 12 4474 16
2 1 0 26 -5 56 l-8 53 -2628 3 c-2097 2 -2628 0 -2632 -10z m2743 -2764 l-3
-436 -32 -13 -33 -14 0 438 0 437 28 11 c15 6 30 11 35 12 4 1 6 -195 5 -435z
m126 416 l26 -10 0 -450 0 -450 -35 17 -35 17 0 443 c0 268 4 443 9 443 5 0
21 -4 35 -10z m-276 -481 l-3 -441 -32 -13 -33 -14 0 443 0 442 28 11 c15 6
30 11 35 12 4 1 6 -197 5 -440z m450 -38 c1 -284 -1 -451 -7 -451 -6 0 -22 5
-36 12 l-25 11 0 453 0 453 33 -14 32 -13 3 -451z m-598 -24 l0 -443 -35 -17
-35 -17 0 445 0 444 28 15 c15 8 30 15 35 16 4 0 7 -199 7 -443z m748 -41 c1
-316 -1 -456 -8 -456 -6 0 -24 7 -40 15 l-30 16 0 448 c0 246 3 450 6 454 3 3
20 -1 37 -8 l32 -13 3 -456z m-888 -27 l-1 -439 -29 -15 c-16 -8 -34 -15 -40
-15 -7 0 -10 141 -10 445 l0 446 32 14 c18 7 36 11 41 8 4 -2 7 -202 7 -444z
m1004 436 l36 -15 0 -455 c0 -249 -3 -456 -8 -459 -4 -2 -22 2 -40 9 l-32 14
0 461 c0 253 2 460 4 460 2 0 20 -7 40 -15z m-1154 -500 l0 -444 -30 -16 c-16
-8 -34 -15 -40 -15 -7 0 -10 143 -10 450 l0 451 32 14 c18 7 36 11 40 9 5 -3
8 -205 8 -449z m1313 438 c16 -5 17 -36 17 -474 l0 -469 -35 17 -35 17 0 464
c0 438 1 464 18 457 9 -4 25 -10 35 -12z m-1463 -498 l0 -454 -31 -16 c-17 -9
-32 -15 -34 -13 -7 7 -7 58 -6 479 l1 435 28 11 c15 6 30 11 35 12 4 1 7 -204
7 -454z m1599 444 l31 -11 0 -474 0 -474 -35 17 -35 17 0 468 c0 257 2 468 4
468 1 0 17 -5 35 -11z m-1749 -509 l0 -459 -30 -16 c-16 -8 -31 -15 -35 -15
-3 0 -5 208 -5 463 l0 463 28 11 c15 6 30 11 35 12 4 1 7 -206 7 -459z m1899
449 l31 -11 0 -474 c0 -261 -2 -474 -4 -474 -1 0 -17 5 -35 11 l-31 11 0 474
c0 261 2 474 4 474 1 0 17 -5 35 -11z m-2049 -514 l0 -464 -30 -16 c-16 -8
-31 -15 -35 -15 -3 0 -5 209 -5 465 l0 464 28 15 c15 8 30 15 35 16 4 0 7
-209 7 -465z m2199 454 l31 -11 0 -480 c0 -453 -1 -480 -17 -473 -10 4 -26 10
-35 12 -17 5 -18 37 -18 484 0 264 2 479 4 479 1 0 17 -5 35 -11z m-2349 -519
l0 -469 -30 -16 c-16 -8 -31 -15 -35 -15 -3 0 -5 212 -5 470 l0 471 33 14 c17
8 33 14 35 15 1 0 2 -211 2 -470z m2499 459 l31 -11 0 -484 c0 -266 -2 -484
-5 -484 -4 0 -19 7 -35 15 l-30 16 0 479 c0 264 2 480 4 480 1 0 17 -5 35 -11z
m-2649 -524 l0 -474 -30 -16 c-16 -8 -31 -15 -35 -15 -3 0 -5 214 -5 475 l0
475 33 14 c17 8 33 15 35 15 1 1 2 -213 2 -474z m2799 464 l31 -11 0 -489 c0
-269 -2 -489 -5 -489 -4 0 -19 7 -35 15 l-30 16 0 484 c0 267 2 485 4 485 1 0
17 -5 35 -11z m-2949 -529 l0 -479 -30 -16 c-16 -8 -31 -15 -35 -15 -3 0 -5
216 -5 480 l0 480 33 14 c17 8 33 15 35 15 1 1 2 -215 2 -479z m3099 469 l31
-11 0 -490 0 -490 -27 7 c-55 13 -53 -8 -53 511 0 266 4 484 9 484 4 0 22 -5
40 -11z m-3245 -526 c-1 -257 -2 -474 -3 -480 -1 -11 -50 -43 -66 -43 -3 0 -5
218 -5 485 l0 485 33 14 c17 7 34 12 37 11 3 -2 4 -214 4 -472z m3404 461 l22
-15 0 -490 c-1 -324 -4 -489 -11 -489 -5 0 -23 7 -39 15 l-30 16 0 489 c0 463
1 490 18 490 10 0 28 -7 40 -16z m160 -562 c1 -276 0 -502 -3 -502 -3 0 -19 7
-35 15 l-30 16 0 499 0 500 33 -13 32 -13 3 -502z m-3708 28 l0 -480 -32 -20
c-17 -10 -35 -17 -40 -14 -4 3 -8 222 -8 488 l0 483 23 11 c12 6 30 11 40 11
16 1 17 -28 17 -479z m3855 409 c6 -6 11 -146 13 -367 l3 -357 -34 -83 -34
-84 -6 324 c-4 178 -7 383 -7 457 l0 133 28 -7 c15 -3 32 -11 37 -16z m-4005
-474 l0 -486 -30 -17 c-16 -9 -30 -21 -30 -27 -1 -5 -6 0 -13 12 -9 16 -11
139 -9 501 l2 479 23 11 c12 6 30 11 40 11 16 1 17 -29 17 -484z m4158 268 c2
-147 2 -152 -29 -231 -17 -45 -33 -82 -35 -82 -2 0 -4 110 -4 245 l0 245 33
-13 32 -13 3 -151z m-4309 -230 l-1 -388 -37 79 -37 79 -3 269 c-1 148 1 283
4 299 6 28 31 47 63 48 9 1 12 -82 11 -386z m4410 341 c5 -4 -30 -107 -40
-118 -5 -6 -9 20 -9 63 0 70 1 72 23 65 12 -3 24 -8 26 -10z m-4559 -191 c0
-97 -3 -174 -6 -171 -3 3 -18 41 -35 84 -23 64 -29 95 -29 162 0 76 2 83 23
92 47 19 47 20 47 -167z m189 -618 c0 -5 -8 6 -19 25 -11 19 -19 40 -19 45 0
6 8 -6 19 -25 11 -19 19 -39 19 -45z"/>
<path d="M17660 10667 c0 -3 20 -132 45 -288 25 -155 44 -283 42 -285 -2 -2
-48 36 -102 86 -55 49 -100 88 -102 86 -2 -2 12 -63 31 -136 29 -109 32 -131
19 -126 -9 4 -102 57 -207 120 -105 62 -213 126 -241 141 l-50 28 36 -39 c56
-62 312 -347 334 -373 l20 -23 -133 7 c-72 4 -132 5 -132 2 0 -3 47 -37 105
-76 115 -79 127 -91 93 -91 -13 0 -120 -7 -238 -15 -118 -8 -231 -15 -250 -15
-30 -1 -32 -3 -15 -11 17 -7 555 -139 570 -139 3 0 5 19 5 43 0 206 174 419
390 477 108 29 262 10 372 -46 74 -38 170 -134 212 -213 36 -70 66 -170 66
-228 0 -20 5 -33 13 -33 6 1 140 27 297 59 181 37 276 60 260 64 -14 3 -140
16 -280 27 -140 12 -256 23 -258 25 -1 1 50 42 115 90 l118 87 -55 -6 c-30 -3
-98 -8 -150 -12 l-95 -7 20 24 c11 13 98 106 194 207 96 100 172 184 170 186
-2 2 -114 -59 -247 -136 -134 -77 -246 -138 -248 -135 -2 2 16 61 41 132 25
70 44 129 42 131 -1 2 -51 -38 -110 -87 -75 -63 -107 -84 -107 -72 0 10 20
137 45 283 24 145 43 266 40 268 -2 2 -12 -16 -23 -40 -37 -81 -233 -478 -236
-478 -2 0 -16 64 -31 143 -15 78 -31 148 -34 155 -4 7 -27 -55 -51 -138 -33
-116 -46 -147 -53 -134 -5 9 -61 127 -124 263 -107 231 -123 263 -123 248z"/>
<path d="M19858 10595 c-4 -16 -10 -65 -14 -107 -3 -43 -9 -78 -13 -78 -3 0
-12 23 -19 52 -6 29 -16 56 -22 62 -20 20 -23 -6 -7 -58 9 -29 17 -82 17 -117
-1 -58 -2 -62 -15 -45 -8 11 -22 46 -31 78 -15 54 -29 76 -40 66 -2 -3 3 -29
11 -59 8 -30 17 -92 19 -139 2 -47 2 -69 -1 -50 -6 58 -16 69 -23 25 l-6 -40
-11 65 -12 65 3 -69 c3 -42 1 -63 -5 -55 -5 8 -9 28 -9 46 0 17 -5 35 -11 39
-9 5 -10 -6 -5 -42 3 -27 8 -78 11 -114 4 -60 3 -58 -10 23 -8 49 -21 103 -30
119 -8 17 -15 37 -15 44 0 13 -18 29 -25 22 -2 -2 2 -26 10 -52 9 -30 11 -54
6 -64 -7 -12 -12 -6 -21 28 -20 81 -33 115 -38 102 -2 -7 1 -27 7 -44 13 -38
15 -86 2 -72 -5 5 -16 34 -26 64 -33 103 -53 97 -28 -9 12 -49 14 -74 6 -82
-7 -7 -15 4 -27 36 -10 25 -22 45 -27 45 -13 0 -11 -21 4 -51 12 -22 47 -117
47 -126 0 -2 -4 -3 -10 -3 -5 0 -19 19 -31 41 -14 29 -24 38 -31 31 -7 -7 -4
-21 11 -45 25 -42 29 -66 6 -47 -18 15 -21 -1 -4 -31 23 -44 1 -40 -25 4 -15
26 -32 47 -37 47 -14 0 -11 -17 11 -52 11 -18 20 -37 20 -43 0 -5 -5 -2 -11 8
-12 21 -33 23 -25 2 10 -27 -45 -6 -84 31 -20 19 -39 34 -43 34 -15 0 -6 -24
23 -57 28 -32 39 -63 23 -63 -5 0 -28 16 -53 36 -29 23 -46 31 -49 23 -2 -7 8
-22 23 -34 56 -44 18 -49 -43 -4 -50 35 -66 31 -30 -9 33 -35 62 -82 56 -89
-3 -2 -17 3 -31 12 -44 29 -31 -4 21 -57 40 -40 44 -48 26 -48 -11 0 -32 10
-47 21 -15 12 -29 19 -32 16 -15 -15 13 -50 69 -87 34 -23 69 -53 78 -67 18
-27 104 -100 129 -109 9 -3 20 -15 25 -27 7 -16 20 -23 49 -25 l39 -3 -31 -19
c-45 -28 -63 -61 -69 -129 -7 -74 10 -142 45 -176 33 -33 43 -32 30 6 -22 65
4 203 45 237 25 21 62 -2 81 -47 21 -55 21 -58 -12 -75 -56 -29 -71 -119 -27
-160 14 -13 25 -30 25 -37 0 -8 -25 -117 -55 -242 -53 -223 -80 -304 -112
-339 -14 -16 -14 -18 -1 -18 9 0 37 -10 63 -21 42 -19 53 -20 89 -9 66 20 264
25 312 8 37 -13 46 -13 85 3 32 13 59 16 100 12 98 -10 126 29 71 97 -38 47
-38 48 -66 228 -41 264 -41 278 -16 292 49 26 61 118 19 156 -22 19 -24 47 -8
93 13 37 19 38 45 10 20 -22 25 -86 12 -146 -6 -24 -4 -33 6 -33 55 0 98 178
60 251 -15 29 -14 31 10 50 14 11 26 26 26 33 0 7 20 26 45 44 25 17 45 38 45
46 0 7 14 19 31 26 18 8 38 28 50 51 11 22 23 39 27 39 15 0 92 71 92 85 0 10
-11 12 -40 8 -35 -5 -40 -3 -34 11 3 9 31 28 60 42 59 28 78 61 23 42 -48 -16
-47 -1 4 50 26 27 45 51 41 55 -4 3 -24 -3 -45 -13 -60 -31 -75 -27 -45 13 42
54 30 63 -21 16 -54 -49 -74 -37 -24 15 30 31 40 56 22 56 -5 0 -14 -7 -22
-16 -7 -8 -29 -24 -48 -34 -20 -10 -51 -34 -70 -54 -19 -19 -38 -33 -42 -30
-4 2 -10 0 -14 -6 -3 -5 -11 -10 -16 -10 -6 0 0 18 12 40 24 42 19 67 -6 34
-13 -18 -14 -16 -14 21 0 22 6 49 14 59 8 11 15 29 15 40 -1 18 -6 14 -35 -19
-18 -22 -36 -37 -39 -35 -2 3 6 30 19 60 30 68 32 99 3 45 -31 -59 -33 -27 -4
61 30 87 29 84 17 84 -5 0 -22 -32 -37 -70 -26 -68 -48 -99 -60 -87 -3 3 2 29
11 57 9 28 15 54 12 57 -8 7 -32 -43 -48 -97 l-14 -45 -3 39 c-2 21 2 52 9 68
6 16 9 31 6 34 -6 6 -65 -101 -73 -132 -3 -12 -17 -27 -31 -33 -24 -11 -25
-10 -20 16 3 15 9 39 13 52 5 17 4 22 -4 17 -7 -4 -19 -33 -29 -64 l-17 -57
-9 85 c-8 84 5 194 24 206 12 7 11 34 0 34 -5 0 -24 -37 -43 -82 l-33 -81 -3
67 c-2 40 3 89 12 119 8 29 11 56 7 60 -10 10 -41 -64 -41 -100 0 -17 -3 -24
-10 -17 -5 5 -11 56 -12 114 -2 68 -5 94 -10 75z m12 -240 c5 -13 12 -47 16
-74 5 -41 3 -53 -13 -71 l-20 -21 -17 25 c-18 29 -20 74 -5 129 12 43 26 47
39 12z m64 -157 c-8 -51 -42 -118 -61 -118 -16 0 -17 44 -1 73 13 26 59 87 64
87 2 0 1 -19 -2 -42z m-125 -12 c21 -26 31 -50 31 -73 0 -31 -2 -33 -21 -23
-25 14 -49 68 -49 111 0 18 2 30 4 28 2 -2 18 -21 35 -43z m-223 -60 c-3 -12
-6 -31 -6 -44 0 -19 -3 -21 -20 -12 -22 12 -35 67 -25 107 l7 28 25 -29 c16
-19 23 -36 19 -50z m606 2 c-2 -29 -5 -53 -6 -54 0 -1 -16 -4 -33 -7 -31 -6
-33 -5 -33 20 0 24 52 93 70 93 4 0 5 -24 2 -52z m-537 -33 c4 -31 1 -67 -8
-95 l-14 -45 -18 40 c-18 41 -16 94 5 150 14 38 27 20 35 -50z m444 -33 c1
-32 -6 -66 -15 -85 l-17 -32 -9 25 c-13 33 -5 149 13 180 l13 25 7 -30 c4 -16
7 -54 8 -83z m-290 -16 c31 -54 42 -121 19 -114 -21 7 -68 108 -68 145 0 43
11 36 49 -31z m99 -53 c-33 -68 -58 -91 -58 -55 0 33 29 104 58 141 l27 36 3
-27 c2 -16 -10 -55 -30 -95z m332 55 c0 -21 -37 -76 -62 -91 -13 -8 -38 -18
-55 -22 -40 -8 -44 10 -12 61 14 24 33 37 67 48 61 18 62 18 62 4z m-701 -13
c37 -19 81 -71 81 -96 0 -18 -2 -19 -30 -4 -40 21 -109 115 -85 115 4 0 19 -7
34 -15z m867 -56 c-8 -30 -19 -66 -26 -80 -12 -24 -49 -58 -62 -59 -15 0 -8
65 11 105 16 35 78 102 87 93 1 -2 -3 -28 -10 -59z m-366 -12 c19 -59 -4 -178
-29 -152 -15 16 -30 82 -24 107 25 110 30 115 53 45z m-355 -104 c-9 -18 -20
-31 -26 -28 -15 10 -10 54 14 119 l22 61 3 -59 c2 -39 -2 -70 -13 -93z m-306
34 c25 -74 26 -89 5 -85 -26 5 -54 68 -54 122 0 41 2 47 14 37 8 -7 24 -40 35
-74z m560 5 c-16 -49 -58 -122 -71 -122 -23 0 4 95 40 145 40 54 53 45 31 -23z
m554 48 c9 -8 -10 -49 -38 -84 -13 -17 -18 -18 -41 -7 -19 8 -24 16 -19 29 4
9 9 26 12 37 10 44 12 45 45 39 18 -4 37 -10 41 -14z m-669 -92 c9 -45 7 -78
-4 -78 -20 0 -70 104 -69 145 l0 40 33 -38 c19 -21 36 -52 40 -69z m-377 35
c25 -45 47 -143 35 -155 -21 -21 -72 91 -72 160 0 42 12 41 37 -5z m-134 20
c2 -5 7 -25 11 -45 6 -36 5 -38 -18 -38 -16 0 -35 13 -55 37 -17 21 -31 41
-31 45 0 10 87 10 93 1z m877 2 c0 -3 -6 -21 -14 -40 -17 -40 -68 -75 -109
-75 -25 0 -27 3 -22 23 14 45 35 66 82 80 57 18 63 19 63 12z m99 -22 c-4 -70
-43 -163 -70 -163 -14 0 -11 52 6 101 29 82 66 118 64 62z m-700 1 c45 -22 72
-84 37 -84 -22 0 -76 56 -76 79 0 25 -1 25 39 5z m126 -173 c-5 -26 -9 -31
-16 -20 -13 20 -11 83 3 116 12 28 12 28 16 -17 2 -24 0 -60 -3 -79z m729 98
c36 -29 33 -46 -13 -60 -42 -13 -75 -8 -106 14 -17 13 -18 17 -5 32 32 38 85
44 124 14z m-893 -62 c5 -21 9 -55 7 -75 l-3 -37 -17 26 c-20 29 -35 101 -30
139 4 24 4 24 18 5 8 -11 19 -37 25 -58z m232 16 c34 -57 54 -123 37 -123 -25
0 -80 112 -80 164 0 26 6 20 43 -41z m161 25 c-7 -42 -50 -132 -69 -148 -29
-24 -16 40 23 111 41 75 55 86 46 37z m52 -51 c-6 -59 -17 -78 -27 -51 -10 24
-11 97 -2 120 6 16 7 15 20 -2 10 -13 13 -34 9 -67z m-627 39 c25 -30 -81 -61
-119 -36 -13 9 -12 13 9 30 28 24 93 27 110 6z m806 -115 c-19 -39 -37 -40
-29 -3 9 40 26 96 33 107 14 23 11 -76 -4 -104z m-535 79 c11 -11 20 -24 20
-29 0 -5 3 -16 6 -25 4 -10 1 -16 -9 -16 -18 0 -67 55 -67 76 0 20 27 17 50
-6z m445 -35 c-14 -27 -50 -55 -70 -55 -10 0 -4 43 10 70 10 19 24 30 42 32
36 4 40 -7 18 -47z m242 33 c15 -7 31 -16 34 -21 3 -4 12 -7 19 -5 27 6 20
-22 -9 -37 -31 -16 -65 -13 -108 7 -27 13 -29 25 -6 50 19 21 32 22 70 6z
m-858 -42 c13 -14 10 -17 -25 -32 -40 -18 -98 -23 -110 -11 -4 4 6 21 22 38
24 26 34 30 63 25 19 -3 41 -12 50 -20z m485 -32 c8 -20 8 -68 0 -88 -12 -30
-24 -5 -24 50 0 52 11 71 24 38z m-204 -59 c0 -37 -4 -65 -10 -65 -11 0 -14
113 -3 123 12 13 13 7 13 -58z m-152 30 c14 -31 27 -105 18 -105 -14 0 -46 67
-46 98 0 38 12 42 28 7z m692 10 c25 -30 -44 -75 -91 -60 -25 8 -24 23 3 52
25 26 69 30 88 8z m-762 -17 c19 -19 15 -24 -25 -37 -29 -10 -45 -10 -68 -1
l-30 12 24 19 c26 21 81 25 99 7z m586 -6 c4 -10 2 -42 -4 -72 -14 -76 -14
-78 30 -90 65 -17 93 -87 69 -171 l-13 -44 -7 55 c-9 73 -25 106 -61 121 -39
16 -50 4 -56 -61 -3 -31 -9 -49 -16 -47 -18 6 -19 36 0 90 10 31 16 78 15 117
-2 88 27 155 43 102z m-64 -10 c0 -26 -27 -60 -62 -78 l-31 -16 6 38 c7 41 37
74 68 74 12 0 19 -7 19 -18z m-360 -24 c21 -34 26 -68 11 -68 -13 0 -29 22
-46 63 -14 33 -14 37 0 37 8 0 24 -15 35 -32z m140 -43 c0 -19 0 -19 -19 0
-11 11 -23 34 -26 50 l-6 30 25 -30 c14 -16 26 -39 26 -50z m54 21 c-21 -42
-39 -48 -29 -9 6 24 35 56 43 48 2 -1 -5 -19 -14 -39z m-319 -2 c37 -24 30
-34 -24 -34 -57 0 -71 12 -39 34 28 20 33 20 63 0z m664 -17 c16 -20 4 -27
-46 -27 -41 0 -56 14 -36 33 12 12 70 7 82 -6z m-283 -79 c-4 -24 -10 -62 -13
-85 -4 -33 -10 -43 -24 -43 -23 0 -23 8 -3 99 11 50 21 71 31 71 13 0 14 -8 9
-42z m-275 -15 c29 -67 34 -106 16 -121 -12 -11 -16 -7 -22 25 -3 21 -14 56
-24 78 -18 40 -18 65 0 65 5 0 19 -21 30 -47z m104 -49 c6 -53 4 -62 -11 -68
-21 -8 -19 -11 -33 46 -15 65 -14 89 7 104 21 16 27 4 37 -82z m85 16 c0 -61
-3 -80 -14 -80 -15 0 -26 42 -26 105 0 44 5 55 27 55 10 0 13 -20 13 -80z
m172 44 c-10 -57 -35 -124 -44 -118 -12 7 -5 74 12 118 11 30 37 30 32 0z
m-500 -27 c-31 -33 -52 -101 -52 -170 0 -43 -3 -58 -11 -50 -14 14 -23 112
-15 158 9 44 46 85 77 85 l22 0 -21 -23z m496 -162 c46 -19 82 -57 82 -86 0
-27 -12 -29 -71 -13 -55 15 -307 21 -374 8 -41 -7 -70 17 -55 47 28 51 101 70
260 65 78 -3 129 -10 158 -21z m-106 -156 c4 -19 10 -144 12 -279 2 -157 8
-257 16 -277 17 -46 6 -65 -13 -23 -13 29 -16 31 -17 13 0 -13 -4 -23 -9 -23
-16 0 -21 45 -32 310 -8 193 -8 273 0 293 14 36 33 30 43 -14z m-121 7 c4 -85
-11 -354 -29 -509 -8 -65 -29 -108 -39 -79 -4 10 -8 8 -18 -5 -7 -10 -15 -16
-18 -13 -8 10 57 603 69 622 7 10 34 -2 35 -16z m53 8 c3 -8 4 -108 1 -222 -2
-114 0 -245 6 -291 9 -77 7 -103 -6 -89 -3 3 -9 25 -14 49 l-9 44 -1 -47 c-1
-36 -5 -48 -16 -48 -8 0 -15 3 -15 8 0 4 7 90 15 192 8 102 15 238 15 303 0
107 8 142 24 101z m-117 -58 c-15 -162 -121 -537 -157 -556 -18 -10 -20 -7
-20 21 0 18 11 51 24 73 25 44 27 53 86 306 39 170 55 220 66 220 4 0 4 -29 1
-64z m-59 26 c8 -22 -1 -71 -44 -242 -58 -233 -83 -309 -107 -324 -31 -20 -29
4 6 101 20 54 45 142 56 195 11 54 30 133 41 177 11 44 20 89 20 100 0 30 16
26 28 -7z m301 -135 c-1 -218 -14 -234 -22 -28 -4 95 -4 177 -1 182 17 28 24
-18 23 -154z m77 47 c45 -350 48 -372 69 -441 5 -14 3 -23 -3 -23 -17 0 -29
52 -67 277 -38 229 -43 287 -22 281 7 -3 17 -40 23 -94z m-36 -457 c0 -5 -5
-7 -12 -5 -14 5 -23 34 -31 103 l-7 50 25 -69 c14 -39 25 -74 25 -79z"/>
<path d="M16009 10564 c-13 -14 -40 -34 -60 -44 -56 -29 -62 -40 -47 -94 10
-40 10 -50 -6 -83 -25 -50 -31 -164 -13 -230 l14 -52 -76 -17 c-94 -20 -194
-59 -216 -84 -22 -24 -13 -65 18 -81 31 -17 107 -16 118 2 5 8 9 24 9 37 0 50
102 51 152 1 24 -24 27 -33 22 -71 -5 -38 4 -270 36 -933 21 -414 52 -711 79
-738 19 -19 51 159 75 423 25 267 86 1223 79 1252 -7 34 33 77 74 80 73 4 103
-9 103 -46 0 -33 14 -46 53 -53 77 -12 132 42 91 89 -24 27 -116 71 -211 100
-70 22 -74 24 -69 48 31 138 31 185 -5 265 -18 42 -19 47 -4 75 22 42 12 65
-39 95 -23 13 -52 38 -64 55 -30 40 -78 42 -113 4z m92 -55 c49 -17 70 -39 67
-68 -3 -26 -4 -26 -100 -29 -103 -3 -138 6 -138 37 0 18 34 54 60 64 26 9 76
7 111 -4z m7 -150 c52 -22 52 -46 1 -41 -40 4 -119 37 -119 50 0 27 42 24 118
-9z m-4 -73 c65 -32 74 -56 21 -56 -71 0 -194 57 -178 82 10 17 99 2 157 -26z
m-43 -68 c42 -14 89 -46 89 -60 0 -31 -188 25 -198 60 -5 16 62 16 109 0z m39
-101 c62 -30 60 -53 -3 -50 -50 1 -158 47 -165 70 -8 29 95 17 168 -20z m156
-103 c187 -38 290 -113 220 -159 -18 -12 -30 -13 -50 -6 -30 12 -33 23 -11 41
23 19 18 30 -22 47 -38 15 -62 15 -273 -3 -55 -5 -98 -2 -155 11 -156 33 -170
36 -207 30 -20 -4 -44 -12 -54 -20 -18 -12 -18 -14 -2 -32 14 -15 15 -22 6
-31 -30 -30 -92 -2 -86 39 4 32 91 76 190 95 91 17 335 11 444 -12z m-120
-118 c31 -23 3 -41 -64 -40 -68 0 -109 18 -91 40 16 19 128 19 155 0z m-112
-67 c14 -7 27 -18 30 -25 6 -16 -11 -681 -19 -741 -4 -24 -10 -43 -15 -43 -23
0 -30 64 -76 701 -6 82 -5 87 17 103 28 19 31 19 63 5z m111 -159 c0 -74 -6
-196 -13 -270 -21 -216 -23 -225 -33 -209 -10 16 -12 602 -2 613 4 4 16 6 28
4 19 -3 20 -10 20 -138z"/>
<path d="M17295 9385 c-27 -15 -62 -35 -76 -46 -47 -33 -84 -35 -120 -5 -47
40 -104 66 -142 66 -35 0 -127 -41 -148 -66 -10 -13 -8 -13 15 -4 54 20 91 12
163 -36 37 -25 79 -48 93 -51 16 -3 63 10 127 36 55 23 115 41 132 41 19 0 64
-18 107 -41 94 -52 123 -52 234 -4 110 48 151 48 250 3 118 -54 127 -55 226
-3 47 25 99 45 116 45 17 0 71 -17 122 -37 122 -50 155 -50 230 5 77 55 102
55 213 -4 101 -53 106 -53 199 11 68 47 106 55 160 35 46 -18 10 15 -49 45
-77 38 -132 30 -210 -29 -19 -15 -41 -26 -50 -26 -8 0 -48 16 -88 35 -40 19
-88 38 -107 41 -42 8 -99 -16 -143 -62 -20 -21 -43 -34 -58 -34 -14 0 -66 23
-116 52 -118 69 -137 69 -242 0 -103 -68 -116 -68 -210 4 -87 66 -139 65 -246
-6 -76 -51 -101 -50 -202 9 -95 55 -118 58 -180 26z"/>
<path d="M17690 9207 c-177 -98 -171 -98 -253 -39 -71 51 -144 56 -223 16 -30
-15 -57 -31 -59 -34 -2 -3 27 -4 63 -2 65 4 69 2 127 -39 84 -60 127 -62 268
-15 59 20 123 36 143 36 20 0 82 -18 137 -41 122 -49 151 -49 277 7 110 47
149 48 263 0 110 -46 159 -47 214 -7 74 54 102 64 166 59 53 -4 57 -3 41 10
-39 30 -101 52 -147 52 -51 0 -85 -14 -151 -62 -49 -35 -62 -33 -160 24 -101
59 -130 60 -243 4 -131 -64 -157 -70 -207 -46 -23 10 -60 33 -83 51 -50 38
-130 50 -173 26z"/>
<path d="M17700 9031 c-14 -4 -57 -25 -97 -46 -65 -34 -78 -37 -131 -33 -36 2
-79 14 -110 29 -43 21 -49 23 -41 8 5 -10 24 -29 42 -43 88 -67 171 -73 287
-21 114 51 160 46 284 -33 88 -57 167 -49 263 24 18 14 49 32 68 40 38 16 63
9 200 -50 33 -14 75 -26 93 -26 51 0 108 34 137 83 35 60 32 64 -17 23 -69
-60 -121 -60 -218 0 -65 40 -113 56 -149 48 -14 -3 -67 -26 -118 -51 -128 -64
-175 -64 -307 0 -103 49 -146 61 -186 48z"/>
<path d="M13926 8250 c-3 -25 -13 -115 -21 -200 -33 -345 -56 -581 -66 -683
l-12 -108 -26 18 c-40 26 -507 330 -583 379 l-67 44 33 -93 c202 -555 424
-953 723 -1296 40 -47 70 -88 66 -92 -5 -4 -89 -80 -188 -169 -99 -88 -181
-165 -183 -170 -11 -32 370 -638 566 -900 372 -495 878 -945 1440 -1281 130
-78 470 -249 602 -303 46 -19 86 -38 87 -43 2 -6 -17 -133 -41 -284 -34 -206
-42 -275 -33 -281 7 -5 95 -35 197 -69 476 -156 895 -234 1400 -261 417 -22
966 27 1346 121 289 71 624 176 624 194 0 7 -20 134 -45 282 -24 149 -41 273
-37 276 4 4 62 30 130 59 760 325 1471 878 1980 1541 150 195 462 678 557 862
l30 58 -55 52 c-30 29 -98 90 -150 137 -52 47 -113 102 -135 122 l-40 37 20
24 c11 14 62 75 112 136 259 312 440 640 633 1145 33 87 59 160 58 162 -2 1
-73 -43 -158 -98 -416 -270 -511 -330 -514 -327 -3 4 -10 67 -46 444 -11 116
-27 276 -35 358 -8 81 -15 163 -15 183 0 50 -14 35 -35 -38 -9 -35 -40 -126
-67 -202 -185 -518 -452 -975 -823 -1411 -55 -64 -101 -121 -103 -125 -2 -5
78 -80 177 -167 99 -87 180 -161 180 -164 1 -3 -23 -39 -53 -80 -30 -41 -88
-123 -130 -184 -222 -324 -477 -603 -792 -866 -407 -339 -879 -578 -1382 -700
-70 -17 -129 -33 -131 -35 -2 -2 20 -148 50 -323 30 -176 51 -322 48 -325 -8
-8 -140 -32 -304 -55 -485 -68 -1020 -59 -1525 25 -170 28 -210 40 -210 61 0
8 22 146 49 307 28 160 51 302 53 315 3 22 -3 25 -117 53 -412 100 -768 258
-1125 499 -368 248 -765 641 -1018 1006 -31 45 -96 137 -144 203 -49 66 -88
121 -88 123 0 2 83 77 185 166 l185 162 -83 97 c-424 493 -699 976 -893 1567
-51 157 -52 159 -58 115z m89 -462 c59 -144 217 -461 292 -586 86 -142 200
-306 348 -497 63 -82 115 -152 115 -156 0 -3 -113 -18 -251 -33 l-252 -27
-108 -100 c-59 -56 -113 -99 -118 -97 -19 6 -181 203 -269 325 -113 159 -207
316 -287 478 -67 137 -167 376 -160 383 2 3 73 -40 157 -95 335 -219 409 -265
414 -261 2 3 18 151 34 329 31 347 40 429 44 429 2 0 20 -42 41 -92z m8055
-328 c18 -201 34 -366 35 -368 2 -3 103 61 395 250 99 64 180 113 180 109 0
-15 -84 -219 -132 -321 -132 -281 -328 -580 -540 -820 l-47 -53 -76 69 c-42
38 -96 85 -119 104 l-42 35 -230 24 c-126 13 -237 27 -247 30 -17 6 -12 16 40
82 329 414 521 731 688 1131 28 66 52 112 56 105 4 -6 21 -176 39 -377z
m-7669 -1180 c146 -228 444 -641 580 -805 92 -109 358 -382 455 -464 432 -368
890 -614 1407 -757 32 -9 57 -19 55 -24 -2 -4 -100 -101 -218 -215 -118 -114
-238 -230 -267 -259 l-52 -51 -20 -123 c-11 -68 -22 -126 -25 -129 -16 -17
-495 216 -696 337 -367 222 -692 480 -995 792 -342 350 -587 685 -899 1231
l-27 47 58 53 c32 28 96 88 143 131 47 44 114 107 150 140 36 34 107 101 159
149 76 72 96 86 106 75 7 -7 45 -65 86 -128z m7624 -188 c116 -107 225 -210
244 -228 l34 -32 -73 -129 c-286 -501 -590 -899 -955 -1251 -432 -418 -892
-728 -1433 -968 -79 -35 -147 -64 -151 -64 -4 0 -16 58 -28 129 l-21 130 -163
158 c-90 86 -213 206 -273 264 l-110 107 75 21 c855 246 1541 753 2111 1561
52 74 134 189 181 255 47 66 118 173 158 237 l73 116 61 -55 c33 -31 155 -144
270 -251z m-5395 -2476 c196 -55 483 -117 670 -145 271 -40 368 -46 730 -46
444 1 531 9 1075 105 158 28 229 44 353 81 57 17 106 28 109 25 10 -10 131
-810 124 -817 -20 -21 -364 -121 -564 -164 -394 -86 -626 -109 -1062 -110
-442 0 -672 23 -1070 105 -293 61 -685 181 -685 210 0 9 27 192 60 405 33 213
60 392 60 398 0 5 8 7 18 4 9 -3 91 -26 182 -51z"/>
<path d="M14291 5954 c-12 -9 -87 -51 -166 -93 -147 -79 -150 -82 -119 -120 2
-2 39 17 83 43 44 25 85 46 92 46 21 0 3 -72 -41 -167 -40 -86 -41 -92 -27
-119 l15 -28 29 59 c33 68 69 157 77 196 l6 27 72 -23 c40 -13 90 -26 111 -30
37 -7 37 -7 27 16 -9 20 -25 27 -103 42 -50 10 -102 24 -116 31 l-24 13 44 26
c24 14 56 31 72 38 28 13 31 18 21 43 -8 20 -24 20 -53 0z"/>
<path d="M14376 5626 c-128 -48 -190 -171 -137 -274 27 -54 84 -91 148 -99 41
-4 61 -1 104 19 100 46 146 116 137 209 -6 55 -42 110 -89 135 -44 22 -117 27
-163 10z m163 -62 c103 -87 16 -251 -140 -262 -56 -4 -60 -3 -94 31 -30 30
-35 42 -35 81 0 57 19 97 63 130 45 34 74 45 129 45 36 1 53 -5 77 -25z"/>
<path d="M14686 5397 c-14 -11 -11 -18 25 -60 49 -57 58 -42 -110 -182 -118
-98 -120 -100 -101 -119 19 -19 20 -19 72 27 29 25 90 78 135 116 l82 71 36
-45 c40 -48 42 -49 64 -36 11 7 -9 35 -87 124 -85 98 -103 114 -116 104z"/>
<path d="M14910 5136 c-10 -13 -5 -23 36 -60 l48 -43 -123 -132 c-118 -124
-124 -133 -107 -149 16 -16 24 -10 143 116 l126 133 41 -40 c42 -41 66 -52 66
-28 0 11 -99 113 -186 190 -27 24 -32 26 -44 13z"/>
<path d="M15075 4760 c-99 -55 -184 -101 -190 -104 -5 -2 1 -13 14 -24 l24
-19 55 38 54 38 69 -56 c38 -30 69 -59 69 -64 0 -5 -11 -33 -24 -63 l-24 -54
23 -22 c13 -12 25 -18 28 -13 2 4 33 95 67 202 l62 194 -24 23 -23 22 -180
-98z m145 -45 c-16 -48 -32 -90 -34 -93 -3 -2 -30 16 -61 41 -55 46 -56 46
-33 60 47 30 152 86 155 83 2 -1 -11 -42 -27 -91z"/>
<path d="M15380 4651 c0 -130 -13 -183 -62 -253 -41 -58 -42 -61 -23 -74 10
-8 22 -14 25 -14 3 0 21 25 40 56 42 70 72 93 193 144 53 24 97 46 97 51 0 5
-9 13 -19 18 -15 9 -36 1 -103 -35 -45 -25 -92 -54 -102 -63 -18 -15 -19 -15
-13 19 4 19 9 75 13 123 6 79 5 89 -12 102 -10 8 -22 15 -26 15 -5 0 -8 -40
-8 -89z"/>
<path d="M15766 4481 c-3 -5 -76 -62 -161 -126 -85 -65 -155 -121 -155 -124 0
-3 9 -12 21 -19 19 -12 25 -9 70 33 27 25 53 44 57 42 4 -2 39 -23 79 -45 l71
-42 -14 -57 c-18 -77 -18 -78 10 -91 31 -14 29 -22 61 198 14 96 28 182 31
191 3 10 -5 23 -20 33 -28 18 -42 20 -50 7z m7 -134 c-9 -53 -20 -97 -25 -97
-15 0 -119 62 -116 70 3 8 152 128 155 126 1 -1 -5 -46 -14 -99z"/>
<path d="M15926 4200 c-53 -93 -96 -171 -96 -174 0 -3 8 -10 19 -15 16 -9 27
7 97 144 43 84 80 152 82 150 4 -4 -17 -312 -23 -341 -3 -15 1 -24 13 -29 13
-5 48 25 150 132 118 123 131 134 118 98 -53 -142 -107 -297 -104 -300 2 -1
12 -5 24 -9 19 -6 26 7 81 166 34 95 64 180 67 188 5 12 -3 19 -28 28 l-34 12
-69 -72 c-38 -40 -93 -98 -122 -128 -32 -34 -50 -47 -47 -35 3 11 10 81 16
155 6 74 12 143 13 153 1 12 -9 23 -29 32 l-32 13 -96 -168z"/>
<path d="M21542 5754 c-30 -52 -52 -97 -50 -99 1 -1 22 -12 46 -24 24 -12 102
-56 173 -97 71 -41 131 -74 133 -74 6 0 116 197 116 208 0 9 -30 26 -35 20 -1
-2 -22 -40 -46 -85 l-44 -82 -65 35 c-36 20 -66 37 -68 39 -2 1 13 29 32 61
26 43 32 61 24 71 -18 22 -27 15 -58 -47 -17 -33 -34 -60 -39 -60 -7 0 -96 46
-110 56 -2 2 15 35 38 74 41 68 47 100 19 100 -7 0 -37 -43 -66 -96z"/>
<path d="M21354 5488 c-57 -68 -70 -157 -35 -234 41 -91 162 -152 246 -124 51
17 111 73 141 133 14 27 24 50 22 51 -2 1 -34 24 -71 50 -55 39 -71 45 -82 36
-24 -20 -18 -28 45 -69 l60 -39 -23 -33 c-12 -18 -38 -44 -57 -57 -49 -33
-132 -28 -185 12 -91 70 -100 163 -23 243 26 27 29 35 18 48 -18 21 -25 19
-56 -17z"/>
<path d="M21066 5130 l-77 -80 63 -58 c35 -31 102 -95 150 -141 l88 -84 77 83
c43 46 78 91 78 99 0 34 -33 17 -85 -44 -30 -35 -59 -64 -63 -64 -5 -1 -33 20
-62 47 l-54 47 52 52 c48 49 50 54 35 69 -15 16 -20 13 -66 -37 l-50 -54 -45
40 c-25 22 -46 45 -46 50 -1 6 26 37 59 70 46 45 57 62 48 72 -6 7 -14 13 -18
13 -4 0 -42 -36 -84 -80z"/>
<path d="M20756 4831 c-18 -20 -17 -21 24 -68 23 -26 82 -96 132 -155 l91
-107 88 76 c49 41 89 79 89 83 0 4 -6 12 -13 18 -9 8 -29 -4 -77 -48 -36 -33
-70 -59 -75 -60 -8 0 -135 146 -225 262 -16 19 -16 19 -34 -1z"/>
<path d="M20457 4592 c-14 -16 -12 -21 34 -77 28 -33 85 -104 126 -157 42 -54
78 -98 80 -98 8 0 183 144 183 151 0 3 -6 12 -13 18 -11 8 -30 -3 -87 -51 -69
-58 -73 -60 -87 -42 -62 85 -209 273 -214 274 -3 0 -13 -8 -22 -18z"/>
<path d="M20173 4421 c-22 -16 -48 -46 -58 -67 -72 -152 82 -361 233 -316 138
42 175 208 75 340 -57 76 -176 96 -250 43z m134 -22 c57 -21 107 -86 124 -159
19 -83 -36 -160 -114 -160 -55 0 -100 29 -137 86 -56 89 -47 182 22 224 37 22
64 25 105 9z"/>
<path d="M19850 4256 c-121 -64 -148 -232 -54 -336 68 -75 152 -87 255 -35 50
26 54 31 43 59 -5 13 -11 11 -42 -9 -21 -13 -56 -27 -79 -31 -106 -17 -207 99
-186 214 8 45 63 99 108 108 29 5 36 10 33 28 -4 29 -26 30 -78 2z"/>
<path d="M18949 3340 c-126 -21 -184 -105 -141 -203 23 -52 49 -68 177 -111
44 -15 87 -32 96 -39 21 -16 39 -51 39 -75 0 -52 -129 -101 -226 -86 l-45 6 3
-33 3 -34 73 2 c183 5 271 75 248 198 -12 64 -49 92 -181 138 -104 36 -122 46
-134 71 -12 26 -12 33 0 55 22 39 64 54 151 55 l78 1 0 33 c0 32 0 32 -47 31
-27 -1 -69 -5 -94 -9z"/>
<path d="M17084 3324 c-23 -8 -60 -31 -83 -50 -144 -124 -141 -351 6 -448 44
-29 140 -56 199 -56 35 0 43 4 48 23 10 36 8 37 -51 37 -170 0 -274 150 -218
311 17 48 64 102 107 125 36 19 118 18 168 -2 46 -19 50 -17 53 22 2 24 -3 29
-38 40 -54 17 -141 16 -191 -2z"/>
<path d="M18199 3254 c-10 -3 -22 -25 -30 -52 -7 -26 -35 -108 -62 -182 -27
-74 -55 -155 -61 -179 l-12 -45 -58 165 c-32 90 -66 191 -76 224 l-17 60 -48
3 c-59 4 -65 -4 -65 -83 0 -34 -9 -148 -20 -255 -11 -107 -20 -198 -20 -202 0
-4 15 -8 33 -8 l33 0 13 237 c7 131 14 239 16 241 1 2 16 -36 33 -85 17 -48
54 -151 82 -228 29 -77 54 -146 56 -152 2 -7 14 -13 27 -13 26 0 23 -7 147
355 43 128 48 137 54 105 4 -28 36 -413 36 -442 0 -5 16 -8 35 -8 43 0 42 -15
15 255 -11 110 -21 220 -22 245 -3 44 -4 45 -38 47 -19 0 -42 -1 -51 -3z"/>
<path d="M17030 6851 l0 -51 -35 0 -35 0 0 -618 c0 -587 1 -620 18 -635 17
-15 62 -17 441 -17 l423 0 29 -25 c55 -45 145 -57 236 -30 27 8 58 24 68 35
18 19 30 20 440 20 348 0 425 2 441 14 18 14 19 34 22 635 l3 621 -41 0 -40 0
0 50 0 50 -367 0 c-205 0 -396 -5 -432 -10 -56 -10 -125 -38 -172 -72 -14 -9
-23 -7 -48 15 -68 57 -98 60 -543 65 l-408 3 0 -50z m818 -19 c19 -6 56 -25
83 -43 l49 -31 0 -574 0 -574 -39 19 c-65 34 -153 41 -508 41 l-343 0 0 583
c0 321 3 587 7 591 13 12 713 1 751 -12z m1090 -574 l2 -588 -342 0 c-395 0
-437 -5 -540 -58 -5 -2 -8 252 -8 565 l0 570 23 20 c35 33 107 65 162 73 27 4
196 7 375 6 l325 -1 3 -587z"/>
<path d="M17410 6595 c0 -11 7 -14 25 -9 l25 6 0 -96 c0 -78 3 -96 15 -96 11
0 15 19 17 93 3 87 4 92 26 95 48 7 19 22 -43 22 -51 0 -65 -3 -65 -15z"/>
<path d="M17580 6505 c0 -87 3 -105 15 -105 11 0 15 12 15 50 l0 50 50 0 50 0
0 -50 c0 -38 4 -50 15 -50 12 0 15 18 15 105 0 87 -3 105 -15 105 -11 0 -15
-11 -15 -40 l0 -40 -50 0 -50 0 0 40 c0 29 -4 40 -15 40 -12 0 -15 -18 -15
-105z"/>
<path d="M17780 6578 c0 -20 12 -51 30 -78 16 -25 30 -57 30 -72 0 -18 5 -28
15 -28 10 0 15 10 15 30 0 16 14 51 30 77 35 55 40 103 11 103 -14 0 -18 -5
-14 -20 3 -10 -5 -36 -18 -56 l-22 -37 -24 27 c-13 15 -23 40 -23 57 0 19 -5
29 -15 29 -10 0 -15 -10 -15 -32z"/>
<path d="M17160 6312 c0 -49 43 -156 64 -160 9 -2 16 2 16 10 1 7 7 27 14 43
l13 30 13 -43 c18 -57 36 -51 66 22 28 69 32 136 9 136 -11 0 -15 -12 -15 -45
0 -26 -7 -60 -17 -78 l-16 -32 -13 35 c-7 19 -13 54 -13 78 -1 30 -5 42 -16
42 -11 0 -15 -12 -15 -47 -1 -27 -7 -61 -14 -78 l-14 -30 -16 37 c-9 21 -16
56 -16 78 0 29 -4 40 -15 40 -11 0 -15 -11 -15 -38z"/>
<path d="M17443 6335 c-48 -33 -51 -118 -6 -167 31 -34 95 -22 118 23 50 95
-32 200 -112 144z m79 -32 c23 -20 24 -85 2 -107 -22 -23 -60 -20 -78 6 -46
66 19 153 76 101z"/>
<path d="M17610 6250 c0 -82 3 -100 15 -100 10 0 15 11 15 35 0 29 4 35 21 35
13 0 25 -11 35 -35 8 -19 21 -35 29 -35 18 0 18 0 1 41 -12 29 -12 37 0 54 37
51 1 105 -71 105 l-45 0 0 -100z m95 35 c0 -27 -4 -30 -32 -33 -32 -3 -33 -2
-33 33 0 35 1 36 33 33 28 -3 32 -6 32 -33z"/>
<path d="M17780 6251 l0 -101 48 0 c67 0 97 31 97 101 0 64 -25 90 -94 97
l-51 5 0 -102z m104 47 c34 -49 8 -118 -45 -118 l-29 0 0 70 0 70 29 0 c20 0
35 -8 45 -22z"/>
<path d="M17248 6053 c-75 -3 -88 -6 -88 -21 0 -16 23 -17 307 -14 254 2 318
0 363 -13 77 -22 84 -22 88 -4 2 12 -11 22 -45 34 -40 15 -87 18 -293 20 -135
1 -284 0 -332 -2z"/>
<path d="M17208 5863 c-34 -3 -48 -8 -48 -19 0 -13 43 -14 313 -13 289 1 316
-1 372 -19 61 -21 75 -20 75 2 0 15 -35 31 -100 46 -42 9 -505 11 -612 3z"/>
<path d="M18230 6640 c-68 -12 -111 -32 -101 -48 7 -11 19 -10 67 5 53 16 92
18 377 15 269 -3 317 -1 317 11 0 11 -27 15 -127 20 -166 9 -475 7 -533 -3z"/>
<path d="M18284 6470 c-75 -8 -140 -26 -149 -40 -3 -4 -3 -15 0 -22 5 -12 15
-11 63 6 54 20 74 21 375 18 311 -2 317 -2 317 18 0 19 -6 20 -209 20 -114 0
-235 2 -267 4 -32 3 -91 1 -130 -4z"/>
<path d="M18170 6246 c0 -108 1 -116 19 -116 18 0 19 8 18 112 -2 99 -4 113
-19 116 -16 3 -18 -7 -18 -112z"/>
<path d="M18283 6345 c-35 -25 -31 -78 8 -105 39 -28 37 -64 -3 -68 -20 -2
-28 -9 -28 -23 0 -28 45 -25 75 6 35 34 31 62 -11 101 -42 38 -41 70 2 61 16
-3 28 1 31 10 7 17 4 20 -27 28 -16 3 -34 0 -47 -10z"/>
<path d="M18283 6042 l-33 -3 0 -95 c0 -75 3 -94 14 -94 9 0 16 12 18 32 4 48
34 50 53 4 9 -20 22 -36 30 -36 18 0 18 1 5 36 -7 19 -7 36 2 60 24 67 -10
104 -89 96z m55 -31 c8 -5 12 -21 10 -37 -2 -25 -8 -29 -35 -32 -31 -3 -33 -2
-33 31 0 18 3 37 7 40 9 9 35 8 51 -2z"/>
<path d="M18100 6030 c0 -5 9 -10 20 -10 18 0 20 -7 20 -85 0 -68 3 -85 15
-85 11 0 15 18 17 83 3 76 5 82 26 85 46 7 20 22 -38 22 -33 0 -60 -4 -60 -10z"/>
<path d="M18420 5958 c0 -46 4 -89 9 -97 15 -23 99 -20 117 3 20 29 20 176 -1
176 -12 0 -15 -15 -15 -74 0 -80 -11 -100 -52 -94 -22 3 -23 8 -26 86 -2 64
-6 82 -17 82 -12 0 -15 -17 -15 -82z"/>
<path d="M18590 6030 c0 -5 11 -10 25 -10 25 0 25 -1 25 -85 0 -69 3 -85 15
-85 12 0 15 16 15 85 0 84 0 85 25 85 14 0 25 5 25 10 0 6 -28 10 -65 10 -37
0 -65 -4 -65 -10z"/>
<path d="M18750 5945 c0 -78 3 -95 15 -95 11 0 15 11 15 40 l0 40 45 0 45 0 0
-40 c0 -29 4 -40 15 -40 12 0 15 17 15 95 0 78 -3 95 -15 95 -11 0 -15 -11
-15 -40 l0 -40 -45 0 -45 0 0 40 c0 29 -4 40 -15 40 -12 0 -15 -17 -15 -95z"/>
<path d="M16315 1581 c-87 -22 -145 -82 -153 -160 -10 -107 27 -151 207 -242
130 -66 161 -95 161 -152 0 -76 -49 -102 -190 -101 -58 0 -118 6 -134 13 -35
14 -42 8 -51 -41 l-7 -36 49 -9 c73 -12 233 -9 278 6 110 37 165 136 134 239
-21 72 -60 106 -192 172 -166 83 -198 120 -162 190 26 51 63 56 280 38 28 -3
30 -1 33 38 l3 41 -47 7 c-59 8 -170 6 -209 -3z"/>
<path d="M15500 1220 l0 -360 219 0 219 0 4 41 4 41 -173 -4 c-137 -2 -174 0
-178 10 -3 8 -5 67 -5 133 l0 119 130 0 130 0 0 40 0 40 -130 -7 -130 -6 0
116 0 117 160 0 160 0 0 40 0 40 -205 0 -205 0 0 -360z"/>
<path d="M16740 1539 l0 -42 115 7 116 7 -3 -326 -3 -325 50 0 50 0 -3 327 -3
326 115 -7 116 -7 0 41 0 40 -275 0 -275 0 0 -41z"/>
<path d="M17450 1222 l0 -360 106 -7 c196 -14 311 35 392 163 49 78 65 141 60
246 -4 106 -24 155 -91 224 -67 68 -123 85 -309 90 l-158 4 0 -360z m242 277
c147 -31 220 -121 222 -274 1 -95 -13 -139 -64 -203 -54 -69 -115 -94 -223
-90 l-82 3 -5 280 c-3 181 -1 283 5 287 15 11 87 10 147 -3z"/>
<path d="M19165 1562 c-115 -55 -134 -182 -40 -275 l43 -43 -46 -35 c-26 -19
-56 -49 -68 -67 -63 -93 -27 -218 80 -275 63 -33 183 -31 253 5 62 33 90 70
103 136 15 83 -18 158 -96 214 -24 17 -44 32 -44 33 0 1 22 24 49 51 40 40 50
58 56 95 15 102 -55 172 -179 177 -54 2 -81 -2 -111 -16z m182 -76 c64 -74
-11 -221 -95 -187 -77 32 -122 123 -88 176 23 35 51 46 110 41 39 -3 55 -9 73
-30z m-46 -304 c57 -37 97 -84 105 -126 19 -102 -113 -180 -216 -128 -99 49
-106 174 -14 250 47 39 68 40 125 4z"/>
<path d="M19736 1509 c-53 -39 -96 -74 -96 -78 0 -4 6 -15 13 -25 13 -17 17
-17 75 13 l62 31 1 -167 c1 -93 0 -225 -1 -295 l-2 -128 46 0 46 0 0 360 0
360 -24 0 c-14 0 -64 -29 -120 -71z"/>
<path d="M20147 1574 c-4 -4 -7 -25 -7 -47 l0 -40 140 7 c136 7 140 7 140 -13
0 -36 -49 -175 -111 -317 -68 -154 -113 -274 -105 -281 3 -3 25 -8 49 -10 44
-5 45 -5 52 28 4 19 39 119 77 224 72 196 115 341 120 410 l3 40 -176 3 c-96
1 -178 -1 -182 -4z"/>
<path d="M18659 1477 c-88 -66 -95 -74 -86 -95 13 -28 17 -28 77 5 27 15 53
23 57 19 5 -4 8 -136 8 -292 l0 -284 45 0 45 0 0 360 1 360 -26 0 c-15 -1 -62
-29 -121 -73z"/>
<path d="M18180 1458 c-24 -38 -19 -74 12 -100 47 -40 118 -1 118 65 0 43 -26
67 -73 67 -31 0 -41 -5 -57 -32z"/>
<path d="M18210 1107 c-52 -26 -60 -103 -14 -134 19 -12 30 -13 59 -3 39 13
55 35 55 77 0 56 -51 86 -100 60z"/>
</g>
</svg>
